HIERARCHY
ROOT Hips
{
	OFFSET 0.000000 0.000000 0.000000 
	CHANNELS 6 Xposition Yposition Zposition Yrotation Zrotation Xrotation 
	JOINT Lumbar
	{
		OFFSET 0.000000 0.000000 0.000000 
		CHANNELS 3 Zrotation Xrotation Yrotation
		JOINT Neck
		{
			OFFSET 0.000000 0.445665 0.000000 
			CHANNELS 3 Zrotation Xrotation Yrotation
			End Site
			{
				OFFSET 0.000000 0.227535 0.000000 
			}
		}
		JOINT RightShoulder
		{
			OFFSET 0.019635 0.377685 0.194865 
			CHANNELS 3 Zrotation Xrotation Yrotation
			JOINT RightElbow
			{
				OFFSET 0.000000 -0.243375 0.000000 
				CHANNELS 2 Zrotation Yrotation
				JOINT RightWrist
				{
					OFFSET 0.000000 -0.264825 0.000000 
					CHANNELS 2 Zrotation Xrotation
					End Site
					{
						OFFSET 0.006600 -0.176220 0.000990 
					}
				}
			}
		}
		JOINT LeftShoulder
		{
			OFFSET 0.019635 0.377685 -0.194865 
			CHANNELS 3 Zrotation Xrotation Yrotation
			JOINT LeftElbow
			{
				OFFSET 0.000000 -0.243375 0.000000 
				CHANNELS 2 Zrotation Yrotation
				JOINT LeftWrist
				{
					OFFSET 0.000000 -0.264825 0.000000 
					CHANNELS 2 Zrotation Xrotation
					End Site
					{
						OFFSET 0.006600 -0.176220 -0.000990 
					}
				}
			}
		}
	}
	JOINT RightHip
	{
		OFFSET 0.052140 -0.069960 0.075570 
		CHANNELS 3 Zrotation Xrotation Yrotation
		JOINT RightKnee
		{
			OFFSET 0.000000 -0.402270 0.000000 
			CHANNELS 1 Zrotation
			JOINT RightAnkle
			{
				OFFSET 0.000000 -0.404085 0.000000 
				CHANNELS 3 Zrotation Xrotation Yrotation
				End Site
				{
					OFFSET 0.204105 -0.089430 0.008415 
				}
			}
		}
	}
	JOINT LeftHip
	{
		OFFSET 0.052140 -0.069960 -0.075570 
		CHANNELS 3 Zrotation Xrotation Yrotation
		JOINT LeftKnee
		{
			OFFSET 0.000000 -0.402270 0.000000 
			CHANNELS 1 Zrotation
			JOINT LeftAnkle
			{
				OFFSET 0.000000 -0.404085 0.000000 
				CHANNELS 3 Zrotation Xrotation Yrotation
				End Site
				{
					OFFSET 0.204105 -0.089430 -0.008415 
				}
			}
		}
	}
}
MOTION
Frames: 22
Frame Time: 0.02
0.0007 0.00052 -0.00141 169.29541 -34.81508 -3.55631 46.12086 2.62814 -9.61142 -16.06011 4.58763 -1.40039 -22.4479 -9.87546 -6.73438 31.32838 89.96234 7.67727 -0.34802 -28.1044 13.08693 2.83556 46.99027 -134.49325 23.22372 -7.10415 38.78631 -1.14526 -11.46861 -21.07173 -7.52965 -2.95585 -3.69452 36.49203 10.88962 7.41087 -26.72489 -8.01794 3.28251 3.92411
0.00109 0.00047 0.00041 169.21673 -34.76517 -3.60667 46.04108 2.6207 -9.56325 -16.05775 4.55384 -1.40081 -22.48346 -10.01358 -6.56631 31.50586 89.80933 7.69975 -0.33848 -27.88126 13.33513 2.05839 47.30524 -130.49656 22.26681 -6.39868 38.75691 -1.27141 -11.75197 -21.07211 -7.52145 -2.908 -3.67327 36.45455 10.83928 7.51963 -26.73672 -8.00598 3.28139 3.92071
0.00148 0.00042 0.00223 169.13846 -34.71495 -3.65694 45.96108 2.61324 -9.51529 -16.05548 4.52021 -1.40125 -22.51879 -10.15122 -6.39922 31.68278 89.65989 7.72293 -0.32834 -27.65872 13.58253 1.28334 47.61916 -126.51224 21.31294 -5.69538 38.72713 -1.39729 -12.03438 -21.0726 -7.5133 -2.86033 -3.6521 36.41672 10.78856 7.62637 -26.74853 -7.99416 3.28041 3.91738
0.00187 0.00036 0.00404 169.06005 -34.66512 -3.70717 45.88147 2.60583 -9.46729 -16.05313 4.48654 -1.40167 -22.55424 -10.28889 -6.23178 31.85973 89.50806 7.7455 -0.31868 -27.43625 13.82995 0.50852 47.93317 -122.52787 20.35899 -4.99208 38.69769 -1.52307 -12.31688 -21.07292 -7.50513 -2.81264 -3.63092 36.37927 10.73827 7.73442 -26.76032 -7.98227 3.27933 3.91401
0.00226 0.00031 0.00586 168.98117 -34.61579 -3.75746 45.80227 2.59843 -9.41905 -16.05068 4.4527 -1.40208 -22.58993 -10.42709 -6.06308 32.03719 89.35094 7.76698 -0.30999 -27.21322 14.0782 -0.26829 48.24818 -118.53109 19.40197 -4.28661 38.66895 -1.64911 -12.60025 -21.07328 -7.49692 -2.76477 -3.60966 36.34237 10.68858 7.84539 -26.77216 -7.97018 3.27804 3.91052
0.00265 0.00026 0.00768 168.9042 -34.56373 -3.80767 45.72061 2.59085 -9.37167 -16.04879 4.41952 -1.40259 -22.62448 -10.56355 -5.89931 32.21292 89.21728 7.79367 -0.29687 -26.99171 14.3238 -1.03962 48.55977 -114.57319 18.45478 -3.58791 38.63708 -1.77465 -12.88058 -21.07417 -7.4889 -2.71751 -3.58868 36.30261 10.63576 7.9434 -26.7839 -7.9589 3.27769 3.90754
0.00304 0.00021 0.00949 168.82345 -34.51715 -3.85804 45.64393 2.58369 -9.32265 -16.04575 4.38504 -1.40289 -22.6614 -10.70328 -5.72612 32.39209 89.03813 7.81015 -0.29234 -26.7674 14.57443 -1.8211 48.87807 -110.54167 17.4889 -2.87639 38.61113 -1.90097 -13.16695 -21.07344 -7.48047 -2.66907 -3.56716 36.26856 10.58917 8.06662 -26.79578 -7.94607 3.27551 3.90356
0.00343 0.00016 0.01131 168.74621 -34.46566 -3.90817 45.56276 2.57606 -9.27505 -16.04382 4.35176 -1.40337 -22.6959 -10.84014 -5.56102 32.56783 88.89806 7.83547 -0.28052 -26.54565 14.82046 -2.59327 49.18988 -106.57761 16.54015 -2.17662 38.58047 -2.02674 -13.44734 -21.07522 -7.47247 -2.62175 -3.54616 36.22941 10.53705 8.168 -26.80762 -7.93455 3.27491 3.90045
0.00381 0.0001 0.01314 168.67318 -34.4075 -3.95837 45.4756 2.56816 -9.22957 -16.04305 4.31993 -1.40411 -22.72835 -10.97297 -5.40819 32.74046 88.81767 7.87404 -0.25713 -26.32699 15.06083 -3.35422 49.49506 -102.69604 15.61237 -1.49121 38.54101 -2.15127 -13.72213 -21.07606 -7.46482 -2.57564 -3.5257 36.18328 10.4772 8.23681 -26.81908 -7.92512 3.2767 3.89865
0.00423 7e-05 0.01492 168.57569 -34.38567 -4.00929 45.42139 2.56271 -9.17302 -16.03501 4.27973 -1.40348 -22.77534 -11.12743 -5.19193 32.93425 88.42976 7.84375 -0.29233 -26.09044 15.33364 -4.18026 49.84231 -98.33983 14.564 -0.72316 38.54302 -2.28121 -14.03428 -21.07024 -7.45461 -2.52209 -3.50182 36.17506 10.45891 8.47532 -26.83174 -7.90517 3.26611 3.89005
0.00456 -3e-05 0.01681 168.52993 -34.28855 -4.05796 45.29869 2.55154 -9.13912 -16.0427 4.25721 -1.40568 -22.78993 -11.23725 -5.10488 33.08129 88.66743 7.95392 -0.2091 -25.89172 15.53807 -4.86851 50.09827 -94.98532 13.7701 -0.12954 38.46344 -2.40081 -14.26431 -21.0862 -7.45017 -2.48456 -3.48535 36.08834 10.35483 8.3673 -26.84247 -7.90641 3.28075 3.89531
0.00459 -0.00032 0.01903 168.62712 -33.97081 -4.10635 44.97679 2.52904 -9.17401 -16.09085 4.28366 -1.41618 -22.72823 -11.21496 -5.41452 33.11566 90.83875 8.49492 0.24713 -25.79661 15.55271 -5.17911 50.12104 -94.40369 13.68102 -0.01865 38.10998 -2.48393 -14.29499 -21.10192 -7.45861 -2.48843 -3.48784 35.77102 9.99702 7.20197 -26.84274 -7.97472 3.37278 3.94308
0.00452 -0.00069 0.02136 168.77648 -33.57965 -4.15136 44.58773 2.49994 -9.23058 -16.15537 4.32785 -1.42944 -22.63123 -11.14943 -5.84659 33.09987 93.60384 9.16973 0.81469 -25.73919 15.49921 -5.35131 50.04818 -94.82361 13.84641 -0.0822 37.68447 -2.55875 -14.23915 -21.15253 -7.47345 -2.50869 -3.49795 35.37723 9.55624 5.70707 -26.84189 -8.06274 3.48869 4.00397
0.0045 -0.00102 0.02364 168.90075 -33.23173 -4.1941 44.23737 2.47109 -9.2727 -16.21412 4.36351 -1.44108 -22.54267 -11.11026 -6.19451 33.09726 95.94809 9.75216 1.29826 -25.66507 15.47817 -5.58647 50.00874 -94.76922 13.89088 -0.06321 37.32381 -2.64195 -14.20494 -21.22398 -7.48723 -2.52333 -3.50557 35.02891 9.16563 4.43417 -26.84511 -8.13582 3.58827 4.05588
0.00447 -0.00134 0.02593 169.02921 -32.8436 -4.25299 43.85428 2.45408 -9.3336 -16.26562 4.40084 -1.45418 -22.4879 -11.04352 -6.66102 33.13651 98.90708 10.46326 1.91762 -25.59057 15.45026 -5.82087 50.01458 -94.79695 13.95747 -0.05821 36.82494 -2.70334 -14.24206 -21.13286 -7.49299 -2.53096 -3.50937 34.63706 8.72309 2.86113 -26.8339 -8.23388 3.71076 4.12038
0.00444 -0.00172 0.02822 169.1635 -32.51976 -4.27731 43.52102 2.41051 -9.36136 -16.33638 4.43931 -1.46498 -22.35219 -11.02291 -6.91209 33.075 100.75639 10.94415 2.28736 -25.52411 15.42106 -6.0243 49.8996 -94.89199 14.03914 -0.06561 36.59999 -2.81114 -14.11406 -21.3983 -7.51725 -2.55626 -3.52257 34.31543 8.36796 1.8283 -26.85175 -8.28499 3.79153 4.16197
0.0045 -0.00222 0.03051 169.28253 -32.41047 -4.20834 43.36401 2.29845 -9.28471 -16.45343 4.47339 -1.46796 -22.02003 -11.14962 -6.51531 32.76231 99.12996 10.70279 1.88044 -25.48495 15.40051 -6.17409 49.50779 -94.91685 14.09174 -0.06247 37.12244 -3.02354 -13.51742 -22.55338 -7.58846 -2.63334 -3.56306 34.22777 8.28497 2.42879 -26.95655 -8.1978 3.74808 4.13522
0.00456 -0.00278 0.03278 169.40923 -32.36563 -4.10462 43.25612 2.15954 -9.17508 -16.58944 4.50883 -1.46865 -21.60398 -11.3227 -5.90148 32.34746 96.4113 10.23424 1.229 -25.44985 15.38201 -6.29758 48.99165 -94.97714 14.15196 -0.06623 37.92771 -3.28749 -12.76374 -24.07947 -7.67841 -2.72635 -3.61212 34.21025 8.2914 3.57365 -27.08951 -8.06337 3.66232 4.08524
0.00462 -0.00331 0.03504 169.54439 -32.27785 -4.01566 43.11018 2.03048 -9.08587 -16.71918 4.54545 -1.47091 -21.21455 -11.46817 -5.40239 31.9694 94.37283 9.90608 0.7297 -25.40357 15.36536 -6.43488 48.51039 -95.02742 14.21452 -0.06802 38.62139 -3.54491 -12.10447 -25.49583 -7.76165 -2.80748 -3.65514 34.14564 8.24936 4.42864 -27.20528 -7.95307 3.59812 4.04715
0.0047 -0.00385 0.0374 169.63031 -32.24206 -3.93017 43.02505 1.91003 -8.97565 -16.84125 4.57414 -1.4711 -20.87334 -11.63891 -4.84065 31.62925 91.5975 9.42946 0.06376 -25.39824 15.33403 -6.56087 48.11645 -95.08482 14.26265 -0.07055 39.24236 -3.73166 -11.34577 -26.67609 -7.83805 -2.90875 -3.70752 34.13934 8.23531 5.44892 -27.33931 -7.83224 3.52525 4.00409
0.00472 -0.00439 0.03955 169.82076 -32.1181 -3.83024 42.82987 1.76671 -8.89963 -16.98151 4.62066 -1.47493 -20.41112 -11.76963 -4.35493 31.18782 90.06665 9.20173 -0.3179 -25.30783 15.33533 -6.70425 47.51314 -95.12542 14.33784 -0.07144 40.08121 -4.07674 -10.75689 -28.42168 -7.93234 -2.97168 -3.74232 34.03333 8.18803 6.26165 -27.44232 -7.72182 3.45962 3.96546
0.00468 -0.00491 0.04117 170.29103 -31.70192 -3.6902 42.28382 1.55531 -8.9379 -17.18476 4.7057 -1.49019 -19.64364 -11.77059 -4.14233 30.48134 92.43886 9.75623 0.17265 -24.98423 15.42118 -6.91729 46.35827 -95.08261 14.49746 -0.06062 41.46557 -4.85624 -10.6836 -31.7542 -8.07774 -2.92434 -3.72656 33.59991 8.00363 6.34123 -27.44988 -7.65224 3.42814 3.94664
